<svg id="Layer_1" data-name="Layer 1" xmlns="http://www.w3.org/2000/svg" viewBox="0 0 469.726 110"><defs><style>.cls-1{fill:#00abdd;}.cls-2{fill:#0081bb;}.cls-3{fill:#a3a5a8;}</style></defs><title>logo</title><path class="cls-1" d="M41.256,46.348a1.711,1.711,0,0,0-.674-2.646,2.154,2.154,0,0,0-3.015.684,13.64,13.64,0,0,1-12.738,7.68A14.7,14.7,0,0,1,9.991,37.606,15.024,15.024,0,0,1,24.829,22.763a14.527,14.527,0,0,1,11.686,6.106,2.26,2.26,0,0,0,3.173.368,1.784,1.784,0,0,0,.219-2.637,18.058,18.058,0,0,0-15.078-7.828A18.836,18.836,0,1,0,41.256,46.348" transform="translate(-6)"/><path class="cls-1" d="M161.059,27.775a15.1,15.1,0,0,1,4.4,8.524H135.777a14.919,14.919,0,0,1,14.747-13.117,13.577,13.577,0,0,1,10.535,4.593m3.02-3.157a18.749,18.749,0,0,0-13.555-5.509,19.063,19.063,0,1,0,0,38.123,20.023,20.023,0,0,0,3.2-.271,2.035,2.035,0,1,0-.685-4.011,15.109,15.109,0,0,1-2.518.21,14.857,14.857,0,0,1-14.68-12.81h33.667a19.012,19.012,0,0,0-5.432-15.732" transform="translate(-6)"/><path class="cls-1" d="M107.1,52.517A14.98,14.98,0,0,1,92.341,37.76,14.69,14.69,0,0,1,107.1,23.218,14.409,14.409,0,0,1,121.655,37.76,14.691,14.691,0,0,1,107.1,52.517M125.635,37.76V4.155A1.933,1.933,0,0,0,123.6,2.121a2.05,2.05,0,0,0-1.946,2.034V26.008C118.175,22,112.9,18.921,107.1,18.921A18.8,18.8,0,1,0,125.635,37.76" transform="translate(-6)"/><path class="cls-1" d="M79.792,37.3A15.23,15.23,0,0,1,64.714,52.45a14.995,14.995,0,0,1,0-29.988,13.557,13.557,0,0,1,10.551,4.6A14.726,14.726,0,0,1,79.792,37.3m-34.361,0a19.217,19.217,0,0,0,38.434,0,19.83,19.83,0,0,0-5.58-13.412A18.744,18.744,0,0,0,64.714,18.4,19.193,19.193,0,0,0,45.431,37.3" transform="translate(-6)"/><path class="cls-2" d="M303.882,18.772a2.337,2.337,0,0,0-2.417,2.034V54.412a2.342,2.342,0,0,0,2.417,2.1,2.26,2.26,0,0,0,2.028-2.1V37.826a14.866,14.866,0,0,1,14.915-14.982,17.474,17.474,0,0,1,5.8,1.048c0.455,0.225.9,0.454,1.36,0.68,0.1,0.092.2,0.2,0.295,0.3,0.231,0.118.456,0.251,0.691,0.378a2.281,2.281,0,0,0,3.081-.679,1.441,1.441,0,0,0,.3-1.053,1.833,1.833,0,0,0-.828-1.809c-0.2-.153-0.4-0.3-0.6-0.455-0.3-.147-0.608-0.3-0.915-0.449-0.674-.224-1.349-0.46-2.028-0.68a19.261,19.261,0,0,0-22.074,5.8V20.806a2.247,2.247,0,0,0-2.028-2.034" transform="translate(-6)"/><path class="cls-2" d="M408.908,18.772a2.325,2.325,0,0,0-2.406,2.034V54.412a2.331,2.331,0,0,0,2.406,2.1,2.266,2.266,0,0,0,2.039-2.1V37.826a14.864,14.864,0,0,1,14.91-14.982,17.628,17.628,0,0,1,5.809,1.048c0.445,0.225.9,0.454,1.359,0.68,0.1,0.092.2,0.2,0.291,0.3,0.22,0.118.45,0.251,0.675,0.378a2.3,2.3,0,0,0,3.1-.679,1.462,1.462,0,0,0,.3-1.053,1.832,1.832,0,0,0-.828-1.809c-0.2-.153-0.393-0.3-0.6-0.455-0.3-.147-0.6-0.3-0.9-0.449-0.69-.224-1.354-0.46-2.029-0.68a19.267,19.267,0,0,0-22.078,5.8V20.806a2.253,2.253,0,0,0-2.039-2.034" transform="translate(-6)"/><path class="cls-2" d="M342.178,23.218h14.915a1.916,1.916,0,0,0,2.038-1.962c0-1.353-.674-2.335-2.038-2.335H342.178V5.739a1.921,1.921,0,0,0-1.962-2.044c-1.359,0-2.341.679-2.341,2.044V37.908a18.719,18.719,0,0,0,18.543,18.533,2.02,2.02,0,1,0,0-3.992,14.38,14.38,0,0,1-14.24-14.24V23.218Z" transform="translate(-6)"/><path class="cls-2" d="M295.5,38.588V54.555a2.117,2.117,0,0,1-2.2,2.34,2.331,2.331,0,0,1-2.177-2.34V49.431A18.7,18.7,0,0,1,276.5,56.518a18.835,18.835,0,1,1,19-19.065v1.135Zm-4.374,0V37.453a14.619,14.619,0,0,0-29.237,0,14.63,14.63,0,0,0,29.237,1.135" transform="translate(-6)"/><path class="cls-2" d="M455.595,18.772a18.723,18.723,0,0,1,7.807,1.513,13.69,13.69,0,0,1,5.319,4.215,3.7,3.7,0,0,1,.312.6,2.267,2.267,0,0,1,.164.531,1.781,1.781,0,0,1,.025.236,0.624,0.624,0,0,1,0,.193,1.4,1.4,0,0,1-.057.369,1.625,1.625,0,0,1-.122.326,1.677,1.677,0,0,1-.194.307,2.513,2.513,0,0,1-.608.531l-0.01.006a1.988,1.988,0,0,1-1.165.29,2.945,2.945,0,0,1-2.233-.944,10.023,10.023,0,0,0-1.865-1.717,10.913,10.913,0,0,0-2.2-1.231,11.562,11.562,0,0,0-2.5-.731,15.364,15.364,0,0,0-2.805-.251,14.144,14.144,0,0,0-1.814.1,12.573,12.573,0,0,0-1.64.3,9.683,9.683,0,0,0-1.456.5,8.512,8.512,0,0,0-1.258.684,6.953,6.953,0,0,0-1.031.858,4.732,4.732,0,0,0-.741.966,4.075,4.075,0,0,0-.445,1.078,4.4,4.4,0,0,0-.153,1.181,5.231,5.231,0,0,0,.138,1.232,5.042,5.042,0,0,0,.424,1.108,4.12,4.12,0,0,0,.7.966,5.944,5.944,0,0,0,.971.843,10.424,10.424,0,0,0,1.3.73c0.553,0.235,1.13.445,1.707,0.634,0.7,0.22,1.41.393,2.116,0.552,0.833,0.189,1.681.347,2.518,0.48,1.14,0.205,2.274.435,3.394,0.721a27.067,27.067,0,0,1,2.85.894,16.867,16.867,0,0,1,2.33,1.088,10.528,10.528,0,0,1,1.809,1.257,10.956,10.956,0,0,1,1.35,1.446,8.268,8.268,0,0,1,.959,1.594,8.768,8.768,0,0,1,.573,1.753,10.244,10.244,0,0,1,.189,1.936,10.462,10.462,0,0,1-.107,1.493,9.855,9.855,0,0,1-.348,1.409,7.83,7.83,0,0,1-.577,1.324,8.963,8.963,0,0,1-.808,1.252,13.209,13.209,0,0,1-1,1.145,11.357,11.357,0,0,1-1.2,1,15.752,15.752,0,0,1-1.379.874,16.306,16.306,0,0,1-1.564.751,16.628,16.628,0,0,1-3.54,1,21.628,21.628,0,0,1-3.986.349,24.4,24.4,0,0,1-4.128-.353,23.676,23.676,0,0,1-3.956-1.073c-0.618-.235-1.236-0.5-1.838-0.787a15.164,15.164,0,0,1-1.646-.925,14.233,14.233,0,0,1-1.462-1.063,13.952,13.952,0,0,1-1.266-1.216,3.7,3.7,0,0,1-.389-0.557,1.733,1.733,0,0,1-.2-0.531,1.182,1.182,0,0,1-.03-0.251v-0.2a2.058,2.058,0,0,1,.045-0.378,2.678,2.678,0,0,1,.328-0.705,3.36,3.36,0,0,1,.618-0.659,2.964,2.964,0,0,1,.592-0.343,1.823,1.823,0,0,1,.583-0.183,2.761,2.761,0,0,1,.306-0.037h0.225a1.978,1.978,0,0,1,.384.057,2.646,2.646,0,0,1,.679.275,2.745,2.745,0,0,1,.617.553,9.91,9.91,0,0,0,1.156,1.134,11.476,11.476,0,0,0,2.948,1.742,14.616,14.616,0,0,0,1.768.593,17.719,17.719,0,0,0,3.847.573c0.378,0.02.746,0.02,1.119,0.02,0.491-.01.955-0.031,1.436-0.067A18.876,18.876,0,0,0,460,51.78a11.026,11.026,0,0,0,2.065-.695,6.287,6.287,0,0,0,.857-0.475c0.159-.1.313-0.215,0.466-0.327a6.173,6.173,0,0,0,1.227-1.216,4.952,4.952,0,0,0,.76-1.441,5.578,5.578,0,0,0,.282-1.64V45.981a6.685,6.685,0,0,0-.078-0.951,8.427,8.427,0,0,0-.27-0.889,4.356,4.356,0,0,0-.454-0.817,4.505,4.505,0,0,0-.613-0.746,6.442,6.442,0,0,0-.783-0.7c-0.2-.143-0.414-0.282-0.628-0.419a10.437,10.437,0,0,0-1.084-.583,11.785,11.785,0,0,0-1.282-.521c-0.49-.174-0.981-0.327-1.481-0.466-0.563-.153-1.115-0.275-1.676-0.387-0.624-.138-1.247-0.246-1.87-0.343a32.747,32.747,0,0,1-4.538-1.042c-0.639-.2-1.278-0.424-1.9-0.69-0.572-.235-1.119-0.5-1.666-0.8a12.258,12.258,0,0,1-1.415-.906,9.547,9.547,0,0,1-.817-0.654,10.738,10.738,0,0,1-1.032-1.072,7.1,7.1,0,0,1-.8-1.124,8.213,8.213,0,0,1-.568-1.2,8.6,8.6,0,0,1-.342-1.277,8.82,8.82,0,0,1-.1-1.364,9.571,9.571,0,0,1,.128-1.758,10.138,10.138,0,0,1,.393-1.6,7.865,7.865,0,0,1,.674-1.432,7.579,7.579,0,0,1,.926-1.287,8.442,8.442,0,0,1,1.2-1.14c0.3-.235.614-0.46,0.93-0.669a16.016,16.016,0,0,1,1.548-.853,14.7,14.7,0,0,1,3.495-1.14,17.087,17.087,0,0,1,1.962-.276,20.312,20.312,0,0,1,2.08-.1" transform="translate(-6)"/><path class="cls-2" d="M235.275,56.364a18.629,18.629,0,0,0,18.911-18.6V20.582a2.131,2.131,0,0,0-2.029-2.044,1.946,1.946,0,0,0-2.049,2.044c-0.1,5.717-.194,11.46-0.3,17.178a14.541,14.541,0,0,1-29.083,0V20.873a2.254,2.254,0,0,0-2.33-2.024,2.182,2.182,0,0,0-2.034,2.024V37.76a18.616,18.616,0,0,0,18.91,18.6" transform="translate(-6)"/><path class="cls-2" d="M192.759,52.378A14.8,14.8,0,0,1,177.845,37.76a15.035,15.035,0,0,1,14.914-14.916,16.131,16.131,0,0,1,10.47,4.436A14.5,14.5,0,0,1,207.3,37.76a14.479,14.479,0,0,1-14.537,14.618m14.537-3.1V70.006a1.969,1.969,0,0,0,2.039,2.023c1.349,0,2.406-.669,2.406-2.023V37.08a20.779,20.779,0,0,0-5.8-12.892,18.74,18.74,0,0,0-13.183-5.416,18.835,18.835,0,1,0,0,37.668A18.386,18.386,0,0,0,207.3,49.281" transform="translate(-6)"/><path class="cls-2" d="M402.144,38.291A19.375,19.375,0,0,1,402,40.616H368.334a14.872,14.872,0,0,0,14.674,12.819,14.633,14.633,0,0,0,2.52-.219,2.038,2.038,0,1,1,.7,4.016,19.609,19.609,0,0,1-3.215.266,19.058,19.058,0,1,1,0-38.113,18.805,18.805,0,0,1,13.562,5.488,19.817,19.817,0,0,1,5.574,13.418M383.008,23.447a14.919,14.919,0,0,0-14.735,13.111h29.686a15.1,15.1,0,0,0-4.4-8.516,13.565,13.565,0,0,0-10.547-4.6" transform="translate(-6)"/><path class="cls-2" d="M469.032,13.392A6.7,6.7,0,1,1,475.726,6.7a6.7,6.7,0,0,1-6.694,6.693m0-12.273a5.583,5.583,0,1,0,5.585,5.58,5.576,5.576,0,0,0-5.585-5.58" transform="translate(-6)"/><path class="cls-2" d="M471.91,5.682a1.858,1.858,0,0,1-1.385,2l1.691,2.346h-1.385L469.3,7.864h-1.431v2.162h-1.079V3.6h2.387a3.415,3.415,0,0,1,2.1.495,1.863,1.863,0,0,1,.634,1.589m-1.436.915a1.176,1.176,0,0,0,.327-0.92,0.981,0.981,0,0,0-.332-0.863,2.286,2.286,0,0,0-1.211-.24h-1.39V6.883h1.354a2.032,2.032,0,0,0,1.252-.286" transform="translate(-6)"/><path class="cls-3" d="M23.64,82.9q2.2,2.06,2.2,6.1v13.04H23.12V98.76a6.511,6.511,0,0,1-2.82,2.561,9.87,9.87,0,0,1-4.42.92,8.654,8.654,0,0,1-5.6-1.681,5.78,5.78,0,0,1-.14-8.76q1.939-1.639,6.18-1.64H23V88.88a5.392,5.392,0,0,0-1.52-4.14,6.28,6.28,0,0,0-4.44-1.42,11.271,11.271,0,0,0-3.84.66A9.677,9.677,0,0,0,10.04,85.8L8.76,83.68a11.367,11.367,0,0,1,3.84-2.1,14.95,14.95,0,0,1,4.72-.74A8.91,8.91,0,0,1,23.64,82.9Zm-3.2,16A6.572,6.572,0,0,0,23,95.72V92.28H16.4q-5.4,0-5.4,3.76a3.441,3.441,0,0,0,1.4,2.9A6.377,6.377,0,0,0,16.32,100,7.485,7.485,0,0,0,20.44,98.9Z" transform="translate(-6)"/><path class="cls-3" d="M38.336,81.92a10.128,10.128,0,0,1,4.9-1.08V83.6l-0.68-.04a6.72,6.72,0,0,0-5.2,2.04,8.128,8.128,0,0,0-1.88,5.721v10.72h-2.84V81h2.72v4.12A6.877,6.877,0,0,1,38.336,81.92Z" transform="translate(-6)"/><path class="cls-3" d="M50.451,100.88a9.836,9.836,0,0,1-3.86-3.82,11.618,11.618,0,0,1,0-11.06,9.882,9.882,0,0,1,3.86-3.8,11.343,11.343,0,0,1,5.58-1.36,10.8,10.8,0,0,1,4.86,1.061,8.066,8.066,0,0,1,3.38,3.1l-2.12,1.44a6.643,6.643,0,0,0-2.64-2.341,7.842,7.842,0,0,0-3.48-.779,8.243,8.243,0,0,0-4.1,1.02,7.169,7.169,0,0,0-2.84,2.9,9.532,9.532,0,0,0,0,8.58,7.2,7.2,0,0,0,2.84,2.88,8.243,8.243,0,0,0,4.1,1.02,8.006,8.006,0,0,0,3.48-.76,6.482,6.482,0,0,0,2.64-2.32l2.12,1.44a8.037,8.037,0,0,1-3.4,3.1,10.835,10.835,0,0,1-4.84,1.061A11.333,11.333,0,0,1,50.451,100.88Z" transform="translate(-6)"/><path class="cls-3" d="M86.075,83.14q2.34,2.3,2.34,6.7v12.2h-2.84V90.12a6.974,6.974,0,0,0-1.64-5,6.162,6.162,0,0,0-4.68-1.72,7.193,7.193,0,0,0-5.38,2.02A7.631,7.631,0,0,0,71.895,91v11.04h-2.84V72.36h2.84V84.68a7.711,7.711,0,0,1,3.2-2.84,10.51,10.51,0,0,1,4.68-1A8.6,8.6,0,0,1,86.075,83.14Z" transform="translate(-6)"/><path class="cls-3" d="M95.271,76.24a1.932,1.932,0,1,1,1.36.56A1.848,1.848,0,0,1,95.271,76.24ZM95.19,81h2.84v21.04H95.19V81Z" transform="translate(-6)"/><path class="cls-3" d="M116.546,100.76a5.387,5.387,0,0,1-1.98,1.1,7.991,7.991,0,0,1-2.46.38,5.574,5.574,0,0,1-6.16-6.12V83.4h-3.76V81h3.76V76.4h2.84V81h6.4v2.4h-6.4V95.96a3.974,3.974,0,0,0,.94,2.86,3.564,3.564,0,0,0,2.7.979,5.231,5.231,0,0,0,1.7-.279,4.215,4.215,0,0,0,1.42-.8Z" transform="translate(-6)"/><path class="cls-3" d="M138.726,92.4h-17.6a7.518,7.518,0,0,0,2.52,5.3,8.364,8.364,0,0,0,5.76,2.02,9.077,9.077,0,0,0,3.6-.7,7.859,7.859,0,0,0,2.84-2.061l1.6,1.84a9.015,9.015,0,0,1-3.5,2.561,11.832,11.832,0,0,1-4.62.88,11.68,11.68,0,0,1-5.74-1.38,9.944,9.944,0,0,1-3.9-3.82,10.879,10.879,0,0,1-1.4-5.52A11.27,11.27,0,0,1,119.626,86a9.7,9.7,0,0,1,3.68-3.8,10.279,10.279,0,0,1,5.26-1.36,10.172,10.172,0,0,1,5.24,1.36,9.641,9.641,0,0,1,3.64,3.78,11.383,11.383,0,0,1,1.32,5.54Zm-15.26-7.181a7.618,7.618,0,0,0-2.34,5.061h14.92a7.623,7.623,0,0,0-2.34-5.061A7.728,7.728,0,0,0,123.466,85.22Z" transform="translate(-6)"/><path class="cls-3" d="M147.618,100.88a9.836,9.836,0,0,1-3.86-3.82,11.618,11.618,0,0,1,0-11.06,9.882,9.882,0,0,1,3.86-3.8,11.343,11.343,0,0,1,5.58-1.36,10.8,10.8,0,0,1,4.86,1.061,8.066,8.066,0,0,1,3.38,3.1l-2.12,1.44a6.643,6.643,0,0,0-2.64-2.341,7.842,7.842,0,0,0-3.48-.779,8.243,8.243,0,0,0-4.1,1.02,7.169,7.169,0,0,0-2.84,2.9,9.532,9.532,0,0,0,0,8.58,7.2,7.2,0,0,0,2.84,2.88,8.243,8.243,0,0,0,4.1,1.02,8.006,8.006,0,0,0,3.48-.76,6.482,6.482,0,0,0,2.64-2.32l2.12,1.44a8.037,8.037,0,0,1-3.4,3.1,10.835,10.835,0,0,1-4.84,1.061A11.333,11.333,0,0,1,147.618,100.88Z" transform="translate(-6)"/><path class="cls-3" d="M178.385,100.76a5.387,5.387,0,0,1-1.98,1.1,7.991,7.991,0,0,1-2.46.38,5.574,5.574,0,0,1-6.16-6.12V83.4h-3.76V81h3.76V76.4h2.84V81h6.4v2.4h-6.4V95.96a3.974,3.974,0,0,0,.94,2.86,3.564,3.564,0,0,0,2.7.979,5.231,5.231,0,0,0,1.7-.279,4.215,4.215,0,0,0,1.42-.8Z" transform="translate(-6)"/><path class="cls-3" d="M182.889,76.24a1.932,1.932,0,1,1,1.36.56A1.848,1.848,0,0,1,182.889,76.24ZM182.809,81h2.84v21.04h-2.84V81Z" transform="translate(-6)"/><path class="cls-3" d="M209.736,83.14q2.34,2.3,2.34,6.7v12.2h-2.84V90.12a6.974,6.974,0,0,0-1.64-5,6.162,6.162,0,0,0-4.68-1.72,7.193,7.193,0,0,0-5.38,2.02,7.631,7.631,0,0,0-1.98,5.58v11.04h-2.84V81h2.72v3.88a7.889,7.889,0,0,1,3.22-2.979,10.3,10.3,0,0,1,4.78-1.061A8.6,8.6,0,0,1,209.736,83.14Z" transform="translate(-6)"/><path class="cls-3" d="M238.656,81V99.48q0,5.358-2.62,7.939t-7.9,2.58a17.653,17.653,0,0,1-5.54-.86,11.382,11.382,0,0,1-4.26-2.38l1.44-2.16a10.812,10.812,0,0,0,3.7,2.12,13.81,13.81,0,0,0,4.58.761q4,0,5.88-1.86t1.879-5.78V97.16a8.555,8.555,0,0,1-3.459,3.04,10.7,10.7,0,0,1-4.74,1.04,11.189,11.189,0,0,1-5.38-1.3,9.59,9.59,0,0,1-3.8-3.641,10.827,10.827,0,0,1,0-10.58,9.54,9.54,0,0,1,3.78-3.6,11.291,11.291,0,0,1,5.4-1.28,10.68,10.68,0,0,1,4.84,1.08,8.716,8.716,0,0,1,3.479,3.12V81h2.721Zm-6.641,16.74a7.079,7.079,0,0,0,2.86-2.74,7.83,7.83,0,0,0,1.02-4,7.721,7.721,0,0,0-1.02-3.979,7.161,7.161,0,0,0-2.84-2.721,9.237,9.237,0,0,0-8.24-.02,6.972,6.972,0,0,0-2.84,2.72,8.353,8.353,0,0,0,0,8,7.1,7.1,0,0,0,2.84,2.74,8.508,8.508,0,0,0,4.1.979A8.623,8.623,0,0,0,232.016,97.74Z" transform="translate(-6)"/><path class="cls-3" d="M275.335,81l-10.52,23.56a10.051,10.051,0,0,1-2.96,4.2,6.618,6.618,0,0,1-4.04,1.24,8.26,8.26,0,0,1-2.84-.479,6.162,6.162,0,0,1-2.28-1.44l1.32-2.12a5.236,5.236,0,0,0,3.84,1.6,3.865,3.865,0,0,0,2.46-.8,7.251,7.251,0,0,0,1.9-2.72l0.921-2.04-9.4-21h2.96l7.92,17.88L272.535,81h2.8Z" transform="translate(-6)"/><path class="cls-3" d="M281.659,100.86a10.055,10.055,0,0,1-3.84-3.82,11.58,11.58,0,0,1,0-11.04,9.915,9.915,0,0,1,3.84-3.8,11.718,11.718,0,0,1,10.96,0,9.788,9.788,0,0,1,3.82,3.8,11.731,11.731,0,0,1,0,11.04,9.925,9.925,0,0,1-3.82,3.82A11.571,11.571,0,0,1,281.659,100.86Zm9.5-2.16a7.11,7.11,0,0,0,2.78-2.9,9.658,9.658,0,0,0,0-8.56,7.122,7.122,0,0,0-2.78-2.9,8.435,8.435,0,0,0-8.04,0,7.25,7.25,0,0,0-2.8,2.9,9.484,9.484,0,0,0,0,8.56,7.238,7.238,0,0,0,2.8,2.9A8.435,8.435,0,0,0,291.159,98.7Z" transform="translate(-6)"/><path class="cls-3" d="M322.039,81v21.04h-2.72V98.2a7.792,7.792,0,0,1-3.08,2.979,9.263,9.263,0,0,1-4.48,1.061,8.961,8.961,0,0,1-6.5-2.3q-2.38-2.3-2.38-6.74V81h2.84V92.92a7.032,7.032,0,0,0,1.641,5.04,6.16,6.16,0,0,0,4.68,1.72,6.886,6.886,0,0,0,5.24-2.02,7.828,7.828,0,0,0,1.92-5.62V81h2.84Z" transform="translate(-6)"/><path class="cls-3" d="M334.679,81.92a10.129,10.129,0,0,1,4.9-1.08V83.6l-0.68-.04a6.723,6.723,0,0,0-5.2,2.04,8.127,8.127,0,0,0-1.88,5.721v10.72h-2.84V81h2.72v4.12A6.883,6.883,0,0,1,334.679,81.92Z" transform="translate(-6)"/><path class="cls-3" d="M360.237,75.56a4.176,4.176,0,0,0-.939,2.961V81h6.479v2.4h-6.4v18.64h-2.84V83.4h-3.761V81h3.761V78.4A6.206,6.206,0,0,1,358.2,73.84a6.312,6.312,0,0,1,4.7-1.68,7.951,7.951,0,0,1,2.32.34,5.245,5.245,0,0,1,1.88.98l-0.96,2.119a4.7,4.7,0,0,0-3.12-1.04A3.639,3.639,0,0,0,360.237,75.56Z" transform="translate(-6)"/><path class="cls-3" d="M388.509,81v21.04h-2.72V98.2a7.792,7.792,0,0,1-3.08,2.979,9.263,9.263,0,0,1-4.48,1.061,8.961,8.961,0,0,1-6.5-2.3q-2.38-2.3-2.38-6.74V81h2.84V92.92a7.032,7.032,0,0,0,1.641,5.04,6.16,6.16,0,0,0,4.68,1.72,6.886,6.886,0,0,0,5.24-2.02,7.828,7.828,0,0,0,1.92-5.62V81h2.84Z" transform="translate(-6)"/><path class="cls-3" d="M406.937,100.76a5.386,5.386,0,0,1-1.98,1.1,7.984,7.984,0,0,1-2.46.38,5.573,5.573,0,0,1-6.159-6.12V83.4h-3.761V81h3.761V76.4h2.84V81h6.4v2.4h-6.4V95.96a3.974,3.974,0,0,0,.939,2.86,3.567,3.567,0,0,0,2.7.979,5.233,5.233,0,0,0,1.7-.279,4.22,4.22,0,0,0,1.42-.8Z" transform="translate(-6)"/><path class="cls-3" d="M429.588,81v21.04h-2.72V98.2a7.792,7.792,0,0,1-3.08,2.979,9.263,9.263,0,0,1-4.48,1.061,8.961,8.961,0,0,1-6.5-2.3q-2.38-2.3-2.38-6.74V81h2.84V92.92a7.032,7.032,0,0,0,1.641,5.04,6.16,6.16,0,0,0,4.68,1.72,6.886,6.886,0,0,0,5.24-2.02,7.828,7.828,0,0,0,1.92-5.62V81h2.84Z" transform="translate(-6)"/><path class="cls-3" d="M442.228,81.92a10.129,10.129,0,0,1,4.9-1.08V83.6l-0.68-.04a6.723,6.723,0,0,0-5.2,2.04,8.127,8.127,0,0,0-1.88,5.721v10.72h-2.84V81h2.72v4.12A6.883,6.883,0,0,1,442.228,81.92Z" transform="translate(-6)"/><path class="cls-3" d="M469.588,92.4h-17.6a7.519,7.519,0,0,0,2.521,5.3,8.363,8.363,0,0,0,5.76,2.02,9.073,9.073,0,0,0,3.6-.7,7.866,7.866,0,0,0,2.841-2.061l1.6,1.84a9.011,9.011,0,0,1-3.5,2.561,11.836,11.836,0,0,1-4.62.88,11.683,11.683,0,0,1-5.74-1.38,9.939,9.939,0,0,1-3.9-3.82,10.884,10.884,0,0,1-1.4-5.52A11.275,11.275,0,0,1,450.487,86a9.7,9.7,0,0,1,3.681-3.8,10.811,10.811,0,0,1,10.5,0,9.643,9.643,0,0,1,3.64,3.78,11.383,11.383,0,0,1,1.32,5.54ZM454.327,85.22a7.623,7.623,0,0,0-2.34,5.061h14.92a7.623,7.623,0,0,0-2.34-5.061A7.728,7.728,0,0,0,454.327,85.22Z" transform="translate(-6)"/></svg>