<svg id="Layer_1" data-name="Layer 1" xmlns="http://www.w3.org/2000/svg" viewBox="0 0 469.726 199.712"><defs><style>.cls-1{fill:#0081bb;}.cls-2{fill:#00abdd;}</style></defs><title>logo_footer</title><path class="cls-1" d="M151.122,4.351q-18.794,18.8-37.591,37.6,9.6,9.588,19.192,19.176,29.43-29.43,58.866-58.867H156.17a6.5,6.5,0,0,0-5.048,2.1" transform="translate(-6 -2.256)"/><path class="cls-1" d="M188.636,120a6.533,6.533,0,0,0,5.043-2.09q14-14,28-28.011L202.483,70.724Q177.858,95.359,153.206,120Z" transform="translate(-6 -2.256)"/><path class="cls-2" d="M115.615,82.4q18.808,18.8,37.591,37.6,9.6-9.6,19.192-19.187Q142.967,71.39,113.531,41.947V77.366a6.486,6.486,0,0,0,2.084,5.038" transform="translate(-6 -2.256)"/><rect class="cls-2" x="183.466" y="5.622" width="27.14" height="42.55" transform="translate(32.691 144.947) rotate(-45)"/><path class="cls-1" d="M306.375,120H270.951q14.707-14.717,29.442-29.442,9.579,9.612,19.185,19.192-4.077,4.094-8.165,8.16a6.5,6.5,0,0,1-5.038,2.09" transform="translate(-6 -2.256)"/><path class="cls-2" d="M335.806,90.559H300.393q14.714,14.724,29.44,29.442H368.2q-13.687-13.659-27.351-27.347a6.487,6.487,0,0,0-5.044-2.095" transform="translate(-6 -2.256)"/><polygon class="cls-1" points="304.632 78.058 323.833 58.867 343.01 78.058 304.632 78.058"/><path class="cls-1" d="M268.866,4.351q-18.786,18.8-37.6,37.6,9.6,9.588,19.192,19.176Q279.9,31.693,309.333,2.256H273.9a6.5,6.5,0,0,0-5.033,2.1" transform="translate(-6 -2.256)"/><path class="cls-2" d="M346.93,39.852q-18.8-18.8-37.6-37.6l-19.19,19.191q29.43,29.432,58.867,58.867V44.9a6.5,6.5,0,0,0-2.08-5.043" transform="translate(-6 -2.256)"/><path class="cls-2" d="M233.355,82.4l37.6,37.6q9.6-9.6,19.192-19.187Q260.7,71.39,231.265,41.947V77.366a6.525,6.525,0,0,0,2.09,5.038" transform="translate(-6 -2.256)"/><path class="cls-2" d="M41.256,176.287a1.711,1.711,0,0,0-.674-2.646,2.154,2.154,0,0,0-3.015.684,13.64,13.64,0,0,1-12.738,7.68,14.7,14.7,0,0,1-14.838-14.46A15.024,15.024,0,0,1,24.829,152.7a14.527,14.527,0,0,1,11.686,6.106,2.26,2.26,0,0,0,3.173.368,1.784,1.784,0,0,0,.219-2.637,18.058,18.058,0,0,0-15.078-7.828,18.836,18.836,0,1,0,16.427,27.576" transform="translate(-6 -2.256)"/><path class="cls-2" d="M161.059,157.714a15.1,15.1,0,0,1,4.405,8.524H135.777a14.919,14.919,0,0,1,14.747-13.117,13.577,13.577,0,0,1,10.535,4.593m3.02-3.157a18.749,18.749,0,0,0-13.555-5.509,19.063,19.063,0,1,0,0,38.123,20.024,20.024,0,0,0,3.2-.271,2.035,2.035,0,1,0-.685-4.011,15.109,15.109,0,0,1-2.518.21,14.857,14.857,0,0,1-14.68-12.81h33.667a19.012,19.012,0,0,0-5.432-15.732" transform="translate(-6 -2.256)"/><path class="cls-2" d="M107.1,182.455A14.98,14.98,0,0,1,92.341,167.7,14.69,14.69,0,0,1,107.1,153.156,14.409,14.409,0,0,1,121.655,167.7,14.691,14.691,0,0,1,107.1,182.455M125.635,167.7V134.093a1.933,1.933,0,0,0-2.034-2.034,2.05,2.05,0,0,0-1.946,2.034v21.853c-3.48-4.006-8.753-7.087-14.552-7.087A18.8,18.8,0,1,0,125.635,167.7" transform="translate(-6 -2.256)"/><path class="cls-2" d="M79.792,167.243a15.23,15.23,0,0,1-15.078,15.145,14.995,14.995,0,0,1,0-29.988A13.557,13.557,0,0,1,75.265,157a14.726,14.726,0,0,1,4.527,10.244m-34.361,0a19.217,19.217,0,0,0,38.434,0,19.83,19.83,0,0,0-5.58-13.412,18.744,18.744,0,0,0-13.571-5.493,19.193,19.193,0,0,0-19.283,18.905" transform="translate(-6 -2.256)"/><path class="cls-1" d="M303.882,148.711a2.337,2.337,0,0,0-2.417,2.034v33.606a2.342,2.342,0,0,0,2.417,2.1,2.26,2.26,0,0,0,2.028-2.1V167.765a14.866,14.866,0,0,1,14.915-14.982,17.475,17.475,0,0,1,5.8,1.048c.455.225.9.454,1.36.68.1.092.2.2.3.3.231.118.456.251.691.378a2.281,2.281,0,0,0,3.081-.679,1.441,1.441,0,0,0,.3-1.053c0-.675-.144-1.518-.828-1.809-.2-.153-.4-.3-.6-.455-.3-.147-.608-.3-.915-.449-.674-.224-1.349-.46-2.028-.68a19.261,19.261,0,0,0-22.074,5.8v-5.119a2.247,2.247,0,0,0-2.028-2.034" transform="translate(-6 -2.256)"/><path class="cls-1" d="M408.908,148.711a2.325,2.325,0,0,0-2.406,2.034v33.606a2.331,2.331,0,0,0,2.406,2.1,2.266,2.266,0,0,0,2.039-2.1V167.765a14.864,14.864,0,0,1,14.91-14.982,17.628,17.628,0,0,1,5.809,1.048c.445.225.905.454,1.359.68.1.092.2.2.291.3.22.118.45.251.675.378a2.3,2.3,0,0,0,3.1-.679,1.462,1.462,0,0,0,.3-1.053c0-.675-.143-1.518-.828-1.809-.2-.153-.393-.3-.6-.455-.3-.147-.6-.3-.9-.449-.69-.224-1.354-.46-2.029-.68a19.267,19.267,0,0,0-22.078,5.8v-5.119a2.253,2.253,0,0,0-2.039-2.034" transform="translate(-6 -2.256)"/><path class="cls-1" d="M342.178,153.156h14.915a1.916,1.916,0,0,0,2.038-1.962c0-1.353-.674-2.335-2.038-2.335H342.178V135.677a1.921,1.921,0,0,0-1.962-2.044c-1.359,0-2.341.679-2.341,2.044v32.169a18.719,18.719,0,0,0,18.543,18.533,2.02,2.02,0,1,0,0-3.992,14.38,14.38,0,0,1-14.24-14.24Z" transform="translate(-6 -2.256)"/><path class="cls-1" d="M295.5,168.526v15.967a2.117,2.117,0,0,1-2.2,2.34,2.331,2.331,0,0,1-2.177-2.34v-5.124a18.7,18.7,0,0,1-14.623,7.087,18.835,18.835,0,1,1,19-19.065Zm-4.374,0v-1.135a14.619,14.619,0,0,0-29.237,0,14.63,14.63,0,0,0,29.237,1.135" transform="translate(-6 -2.256)"/><path class="cls-1" d="M455.6,148.711a18.723,18.723,0,0,1,7.807,1.513,13.69,13.69,0,0,1,5.319,4.215,3.7,3.7,0,0,1,.312.6,2.266,2.266,0,0,1,.164.531,1.781,1.781,0,0,1,.025.236.624.624,0,0,1,0,.193,1.4,1.4,0,0,1-.057.369,1.625,1.625,0,0,1-.122.326,1.676,1.676,0,0,1-.194.307,2.512,2.512,0,0,1-.608.531l-.01.006a1.988,1.988,0,0,1-1.165.29,2.945,2.945,0,0,1-2.233-.944,10.024,10.024,0,0,0-1.865-1.717,10.913,10.913,0,0,0-2.2-1.231,11.561,11.561,0,0,0-2.5-.731,15.363,15.363,0,0,0-2.805-.251,14.145,14.145,0,0,0-1.814.1,12.575,12.575,0,0,0-1.64.3,9.684,9.684,0,0,0-1.456.5,8.511,8.511,0,0,0-1.258.684,6.955,6.955,0,0,0-1.031.858,4.732,4.732,0,0,0-.741.966,4.075,4.075,0,0,0-.445,1.078,4.4,4.4,0,0,0-.153,1.181,5.231,5.231,0,0,0,.138,1.232,5.04,5.04,0,0,0,.424,1.108,4.12,4.12,0,0,0,.7.966,5.943,5.943,0,0,0,.971.843,10.423,10.423,0,0,0,1.3.73c.553.235,1.13.445,1.707.634.7.22,1.41.393,2.116.552.833.189,1.681.347,2.518.48,1.14.2,2.274.435,3.394.721a27.068,27.068,0,0,1,2.85.894,16.868,16.868,0,0,1,2.33,1.088,10.527,10.527,0,0,1,1.809,1.257,10.956,10.956,0,0,1,1.35,1.446,8.268,8.268,0,0,1,.959,1.594,8.769,8.769,0,0,1,.573,1.753,10.245,10.245,0,0,1,.189,1.936,10.464,10.464,0,0,1-.107,1.493,9.857,9.857,0,0,1-.348,1.409,7.832,7.832,0,0,1-.577,1.324,8.962,8.962,0,0,1-.808,1.252,13.208,13.208,0,0,1-1,1.145,11.357,11.357,0,0,1-1.2,1,15.754,15.754,0,0,1-1.379.874,16.311,16.311,0,0,1-1.564.751,16.628,16.628,0,0,1-3.54,1,21.628,21.628,0,0,1-3.986.349,24.4,24.4,0,0,1-4.128-.353,23.677,23.677,0,0,1-3.956-1.073c-.618-.235-1.236-.5-1.838-.787a15.163,15.163,0,0,1-1.646-.925,14.231,14.231,0,0,1-1.462-1.063,13.951,13.951,0,0,1-1.266-1.216,3.7,3.7,0,0,1-.389-.557,1.732,1.732,0,0,1-.2-.531,1.182,1.182,0,0,1-.03-.251v-.2a2.059,2.059,0,0,1,.045-.378,2.679,2.679,0,0,1,.328-.7,3.36,3.36,0,0,1,.618-.659,2.963,2.963,0,0,1,.592-.343,1.823,1.823,0,0,1,.583-.183,2.76,2.76,0,0,1,.306-.037h.225a1.978,1.978,0,0,1,.384.057,2.646,2.646,0,0,1,.679.275,2.745,2.745,0,0,1,.617.553,9.91,9.91,0,0,0,1.156,1.134,11.477,11.477,0,0,0,2.948,1.742,14.616,14.616,0,0,0,1.768.593,17.719,17.719,0,0,0,3.847.573c.378.02.746.02,1.119.02.491-.01.955-.031,1.436-.067a18.876,18.876,0,0,0,2.524-.352,11.026,11.026,0,0,0,2.065-.695,6.286,6.286,0,0,0,.857-.475c.159-.1.313-.215.466-.327a6.173,6.173,0,0,0,1.227-1.216,4.952,4.952,0,0,0,.76-1.441,5.578,5.578,0,0,0,.282-1.64v-.005a6.688,6.688,0,0,0-.078-.951,8.43,8.43,0,0,0-.27-.889,4.358,4.358,0,0,0-.454-.817,4.506,4.506,0,0,0-.613-.746,6.443,6.443,0,0,0-.783-.7c-.2-.143-.414-.282-.628-.419a10.437,10.437,0,0,0-1.084-.583,11.788,11.788,0,0,0-1.282-.521c-.49-.174-.981-.327-1.481-.466-.563-.153-1.115-.275-1.676-.387-.624-.138-1.247-.246-1.87-.343a32.746,32.746,0,0,1-4.538-1.042c-.639-.2-1.278-.424-1.9-.69-.572-.235-1.119-.5-1.666-.8a12.26,12.26,0,0,1-1.415-.906,9.546,9.546,0,0,1-.817-.654,10.739,10.739,0,0,1-1.032-1.072,7.1,7.1,0,0,1-.8-1.124,8.211,8.211,0,0,1-.568-1.2,8.593,8.593,0,0,1-.342-1.277,8.821,8.821,0,0,1-.1-1.364,9.571,9.571,0,0,1,.128-1.758,10.138,10.138,0,0,1,.393-1.6,7.864,7.864,0,0,1,.674-1.432,7.577,7.577,0,0,1,.926-1.287,8.441,8.441,0,0,1,1.195-1.14c.3-.235.614-.46.93-.669a16.017,16.017,0,0,1,1.548-.853,14.695,14.695,0,0,1,3.5-1.14,17.086,17.086,0,0,1,1.962-.276,20.311,20.311,0,0,1,2.08-.1" transform="translate(-6 -2.256)"/><path class="cls-1" d="M235.275,186.3a18.629,18.629,0,0,0,18.911-18.6V150.521a2.131,2.131,0,0,0-2.029-2.044,1.946,1.946,0,0,0-2.049,2.044c-.1,5.717-.194,11.46-.3,17.178a14.542,14.542,0,0,1-29.083,0V150.812a2.254,2.254,0,0,0-2.33-2.024,2.182,2.182,0,0,0-2.034,2.024V167.7a18.616,18.616,0,0,0,18.91,18.6" transform="translate(-6 -2.256)"/><path class="cls-1" d="M192.759,182.317A14.8,14.8,0,0,1,177.845,167.7a15.035,15.035,0,0,1,14.914-14.916,16.131,16.131,0,0,1,10.47,4.436,14.878,14.878,0,0,1-10.47,25.1m14.537-3.1v20.725a1.969,1.969,0,0,0,2.039,2.023c1.349,0,2.406-.669,2.406-2.023V167.019a20.779,20.779,0,0,0-5.8-12.892,18.74,18.74,0,0,0-13.183-5.416,18.835,18.835,0,1,0,0,37.668A18.386,18.386,0,0,0,207.3,179.22" transform="translate(-6 -2.256)"/><path class="cls-1" d="M402.144,168.23a19.377,19.377,0,0,1-.143,2.325H368.334a14.872,14.872,0,0,0,14.674,12.819,14.633,14.633,0,0,0,2.52-.219,2.038,2.038,0,1,1,.695,4.016,19.609,19.609,0,0,1-3.215.266,19.058,19.058,0,1,1,0-38.113,18.805,18.805,0,0,1,13.562,5.488,19.817,19.817,0,0,1,5.574,13.418m-19.136-14.844A14.919,14.919,0,0,0,368.273,166.5h29.686a15.1,15.1,0,0,0-4.4-8.516,13.565,13.565,0,0,0-10.547-4.595" transform="translate(-6 -2.256)"/><path class="cls-1" d="M469.032,143.331a6.7,6.7,0,1,1,6.694-6.693,6.7,6.7,0,0,1-6.694,6.693m0-12.273a5.583,5.583,0,1,0,5.585,5.58,5.576,5.576,0,0,0-5.585-5.58" transform="translate(-6 -2.256)"/><path class="cls-1" d="M471.91,135.62a1.858,1.858,0,0,1-1.385,2l1.691,2.346h-1.385L469.3,137.8h-1.431v2.162h-1.079v-6.428h2.387a3.415,3.415,0,0,1,2.1.5,1.863,1.863,0,0,1,.634,1.589m-1.436.915a1.176,1.176,0,0,0,.327-.92.981.981,0,0,0-.332-.863,2.286,2.286,0,0,0-1.211-.24h-1.39v2.309h1.354a2.032,2.032,0,0,0,1.252-.286" transform="translate(-6 -2.256)"/></svg>